<?xml version="1.0" encoding="UTF-8"?>
<svg xmlns="http://www.w3.org/2000/svg" xmlns:xlink="http://www.w3.org/1999/xlink" width="2000" height="2000" viewBox="0 0 2000 2000">
<path fill-rule="evenodd" fill="rgb(98.046875%, 73.242188%, 81.639099%)" fill-opacity="1" d="M 802.703125 176.28125 C 921.996094 176.28125 1018.699219 383.910156 1018.699219 640.039062 C 1018.699219 683.820312 1015.871094 726.179688 1010.589844 766.328125 C 988.925781 764.070312 966.90625 762.871094 944.582031 762.871094 C 820.921875 762.871094 708.863281 801.101562 612.351562 859.378906 C 595.992188 794.070312 586.703125 719.390625 586.703125 640.039062 C 586.703125 383.910156 683.410156 176.28125 802.703125 176.28125 "/>
<path fill-rule="evenodd" fill="rgb(98.046875%, 73.242188%, 81.639099%)" fill-opacity="1" d="M 1590.941406 633.230469 C 1668.988281 777.769531 1619.511719 951.140625 1454.269531 814.660156 C 1435.558594 861.480469 1411.78125 905.398438 1385 941.199219 C 1261.589844 840.539062 1253.058594 843.769531 1018.238281 764.128906 C 1137.941406 451.890625 1421.5 319.46875 1590.941406 633.230469 "/>
<path fill-rule="evenodd" fill="rgb(98.046875%, 73.242188%, 81.639099%)" fill-opacity="1" d="M 950.933594 760.75 C 1272.269531 767.519531 1534.949219 998.230469 1529.050781 1292.273438 C 1523.148438 1586.3125 1270.21875 1823.800781 950.933594 1823.800781 C 631.652344 1823.800781 370.761719 1590.632812 372.820312 1292.273438 C 374.882812 993.910156 629.597656 753.96875 950.933594 760.75 "/>
<path fill="none" stroke-width="360" stroke-linecap="round" stroke-linejoin="round" stroke="rgb(13.729858%, 12.159729%, 12.548828%)" stroke-opacity="1" stroke-miterlimit="2.61313" d="M 12030.898438 7883.554688 C 11626.40625 8131.367188 11252.304688 8110.195312 10908.59375 7820.039062 " transform="matrix(0.1, 0, 0, -0.1, 0, 2000)"/>
<path fill-rule="evenodd" fill="rgb(13.729858%, 12.159729%, 12.548828%)" fill-opacity="1" d="M 768.867188 1287.878906 C 796.875 1287.878906 819.582031 1310.582031 819.582031 1338.589844 C 819.582031 1366.597656 796.875 1389.304688 768.867188 1389.304688 C 740.859375 1389.304688 718.152344 1366.597656 718.152344 1338.589844 C 718.152344 1310.582031 740.859375 1287.878906 768.867188 1287.878906 "/>
<path fill-rule="evenodd" fill="rgb(13.729858%, 12.159729%, 12.548828%)" fill-opacity="1" d="M 1146.980469 1287.878906 C 1174.980469 1287.878906 1197.691406 1310.582031 1197.691406 1338.589844 C 1197.691406 1366.597656 1174.980469 1389.304688 1146.980469 1389.304688 C 1118.96875 1389.304688 1096.261719 1366.597656 1096.261719 1338.589844 C 1096.261719 1310.582031 1118.96875 1287.878906 1146.980469 1287.878906 "/>
<path fill="none" stroke-width="360" stroke-linecap="round" stroke-linejoin="round" stroke="rgb(13.729858%, 12.159729%, 12.548828%)" stroke-opacity="1" stroke-miterlimit="2.61313" d="M 7127.5 7883.554688 C 7531.992188 8131.367188 7906.09375 8110.195312 8249.84375 7820.039062 " transform="matrix(0.1, 0, 0, -0.1, 0, 2000)"/>
<path fill-rule="evenodd" fill="rgb(13.729858%, 12.159729%, 12.548828%)" fill-opacity="1" d="M 957.921875 1410.699219 C 984.164062 1410.699219 1005.441406 1431.972656 1005.441406 1458.214844 C 1005.441406 1484.453125 984.164062 1505.726562 957.921875 1505.726562 C 931.679688 1505.726562 910.40625 1484.453125 910.40625 1458.214844 C 910.40625 1431.972656 931.679688 1410.699219 957.921875 1410.699219 "/>
<path fill="none" stroke-width="2.16" stroke-linecap="round" stroke-linejoin="round" stroke="rgb(100%, 100%, 100%)" stroke-opacity="1" stroke-miterlimit="2.61313" d="M 9579.21875 5893.007812 C 9841.640625 5893.007812 10054.414062 5680.273438 10054.414062 5417.851562 C 10054.414062 5155.46875 9841.640625 4942.734375 9579.21875 4942.734375 C 9316.796875 4942.734375 9104.0625 5155.46875 9104.0625 5417.851562 C 9104.0625 5680.273438 9316.796875 5893.007812 9579.21875 5893.007812 Z M 9579.21875 5893.007812 " transform="matrix(0.1, 0, 0, -0.1, 0, 2000)"/>
<path fill="none" stroke-width="360" stroke-linecap="round" stroke-linejoin="round" stroke="rgb(13.729858%, 12.159729%, 12.548828%)" stroke-opacity="1" stroke-miterlimit="2.61313" d="M 9581.875 5194.179688 C 9609.960938 4419.804688 9232.304688 4126.875 8448.90625 4315.351562 " transform="matrix(0.1, 0, 0, -0.1, 0, 2000)"/>
<path fill-rule="evenodd" fill="rgb(100%, 100%, 100%)" fill-opacity="1" d="M 794.445312 337.851562 C 884.175781 330.199219 920.980469 619.378906 911.644531 761.960938 C 837.847656 770.910156 792.261719 779.339844 727.332031 801.960938 C 701.328125 688.519531 705.996094 345.390625 794.445312 337.851562 "/>
<path fill="none" stroke-width="360" stroke-linecap="round" stroke-linejoin="round" stroke="rgb(13.729858%, 12.159729%, 12.548828%)" stroke-opacity="1" stroke-miterlimit="2.61313" d="M 9576.5625 5194.179688 C 9548.476562 4419.804688 9926.132812 4126.875 10709.492188 4315.351562 " transform="matrix(0.1, 0, 0, -0.1, 0, 2000)"/>
<path fill="none" stroke-width="360" stroke-linecap="round" stroke-linejoin="round" stroke="rgb(100%, 100%, 100%)" stroke-opacity="1" stroke-miterlimit="2.61313" d="M 12905.507812 13758.984375 C 13294.6875 12974.6875 13806.914062 12289.21875 14442.1875 11702.617188 " transform="matrix(0.1, 0, 0, -0.1, 0, 2000)"/>
<path fill="none" stroke-width="360" stroke-linecap="round" stroke-linejoin="round" stroke="rgb(13.729858%, 12.159729%, 12.548828%)" stroke-opacity="1" stroke-miterlimit="2.61313" d="M 12030.898438 7883.554688 C 11626.40625 8131.367188 11252.304688 8110.195312 10908.515625 7820.039062 " transform="matrix(0.1, 0, 0, -0.1, 0, 2000)"/>
<path fill-rule="evenodd" fill="rgb(13.729858%, 12.159729%, 12.548828%)" fill-opacity="1" d="M 768.863281 1287.878906 C 796.871094 1287.878906 819.574219 1310.582031 819.574219 1338.589844 C 819.574219 1366.597656 796.871094 1389.304688 768.863281 1389.304688 C 740.855469 1389.304688 718.148438 1366.597656 718.148438 1338.589844 C 718.148438 1310.582031 740.855469 1287.878906 768.863281 1287.878906 "/>
<path fill-rule="evenodd" fill="rgb(13.729858%, 12.159729%, 12.548828%)" fill-opacity="1" d="M 1146.96875 1287.878906 C 1174.980469 1287.878906 1197.679688 1310.582031 1197.679688 1338.589844 C 1197.679688 1366.597656 1174.980469 1389.304688 1146.96875 1389.304688 C 1118.960938 1389.304688 1096.261719 1366.597656 1096.261719 1338.589844 C 1096.261719 1310.582031 1118.960938 1287.878906 1146.96875 1287.878906 "/>
<path fill="none" stroke-width="360" stroke-linecap="round" stroke-linejoin="round" stroke="rgb(13.729858%, 12.159729%, 12.548828%)" stroke-opacity="1" stroke-miterlimit="2.61313" d="M 7127.460938 7883.554688 C 7531.953125 8131.367188 7906.054688 8110.195312 8249.804688 7820.039062 " transform="matrix(0.1, 0, 0, -0.1, 0, 2000)"/>
<path fill-rule="evenodd" fill="rgb(13.729858%, 12.159729%, 12.548828%)" fill-opacity="1" d="M 957.914062 1410.699219 C 984.15625 1410.699219 1005.429688 1431.972656 1005.429688 1458.214844 C 1005.429688 1484.453125 984.15625 1505.726562 957.914062 1505.726562 C 931.675781 1505.726562 910.402344 1484.453125 910.402344 1458.214844 C 910.402344 1431.972656 931.675781 1410.699219 957.914062 1410.699219 "/>
<path fill="none" stroke-width="360" stroke-linecap="round" stroke-linejoin="round" stroke="rgb(13.729858%, 12.159729%, 12.548828%)" stroke-opacity="1" stroke-miterlimit="2.61313" d="M 9581.796875 5194.179688 C 9609.882812 4419.804688 9232.265625 4126.875 8448.867188 4315.351562 " transform="matrix(0.1, 0, 0, -0.1, 0, 2000)"/>
<path fill="none" stroke-width="360" stroke-linecap="round" stroke-linejoin="round" stroke="rgb(13.729858%, 12.159729%, 12.548828%)" stroke-opacity="1" stroke-miterlimit="2.61313" d="M 9576.523438 5194.179688 C 9548.4375 4419.804688 9926.054688 4126.875 10709.492188 4315.351562 " transform="matrix(0.1, 0, 0, -0.1, 0, 2000)"/>
<path fill="none" stroke-width="360" stroke-linecap="round" stroke-linejoin="round" stroke="rgb(13.729858%, 12.159729%, 12.548828%)" stroke-opacity="1" stroke-miterlimit="2.61313" d="M 8026.953125 18237.1875 C 9219.882812 18237.1875 10186.914062 16160.898438 10186.914062 13599.609375 C 10186.914062 13161.796875 10158.710938 12738.203125 10105.78125 12336.71875 C 9889.179688 12359.296875 9669.023438 12371.289062 9445.78125 12371.289062 C 8209.179688 12371.289062 7063.4375 12014.21875 6123.4375 11406.210938 C 5959.84375 12059.296875 5866.953125 12806.09375 5866.953125 13599.609375 C 5866.953125 16160.898438 6834.023438 18237.1875 8026.953125 18237.1875 Z M 8026.953125 18237.1875 " transform="matrix(0.1, 0, 0, -0.1, 0, 2000)"/>
<path fill-rule="evenodd" fill="rgb(98.046875%, 73.242188%, 81.639099%)" fill-opacity="1" d="M 1590.929688 633.230469 C 1668.980469 777.769531 1619.511719 951.140625 1454.269531 814.660156 C 1435.558594 861.480469 1411.78125 905.398438 1385 941.199219 C 1271.710938 825.558594 1175.210938 780.328125 1018.238281 764.128906 C 1137.929688 451.890625 1421.5 319.46875 1590.929688 633.230469 "/>
<path fill="none" stroke-width="360" stroke-linecap="round" stroke-linejoin="round" stroke="rgb(13.729858%, 12.159729%, 12.548828%)" stroke-opacity="1" stroke-miterlimit="2.61313" d="M 15909.296875 13667.695312 C 16689.804688 12222.304688 16195.117188 10488.59375 14542.695312 11853.398438 C 14355.585938 11385.195312 14117.8125 10946.015625 13850 10588.007812 C 12717.109375 11744.414062 11752.109375 12196.71875 10182.382812 12358.710938 C 11379.296875 15481.09375 14215 16805.3125 15909.296875 13667.695312 Z M 15909.296875 13667.695312 " transform="matrix(0.1, 0, 0, -0.1, 0, 2000)"/>
<path fill="none" stroke-width="360" stroke-linecap="round" stroke-linejoin="round" stroke="rgb(13.729858%, 12.159729%, 12.548828%)" stroke-opacity="1" stroke-miterlimit="2.61313" d="M 15223.398438 6265.15625 C 15099.6875 5523.554688 14809.296875 4832.460938 14388.515625 4225.195312 M 13854.882812 3571.601562 C 12795.3125 2462.265625 11241.289062 1761.992188 9509.296875 1761.992188 C 6316.445312 1761.992188 3728.164062 4141.71875 3728.164062 7077.265625 C 3728.164062 10012.8125 6316.445312 12392.5 9509.296875 12392.5 C 12702.109375 12392.5 15290.390625 10012.8125 15290.390625 7077.265625 " transform="matrix(0.1, 0, 0, -0.1, 0, 2000)"/>
<path fill="none" stroke-width="360" stroke-linecap="round" stroke-linejoin="round" stroke="rgb(13.729858%, 12.159729%, 12.548828%)" stroke-opacity="1" stroke-miterlimit="2.61313" d="M 7220.625 15072.8125 C 7331.523438 15915.3125 7558.046875 16588.59375 7944.375 16621.484375 C 8841.71875 16698.007812 9207.070312 13762.382812 9113.671875 12336.71875 C 8434.648438 12394.21875 7883.007812 12264.6875 7273.28125 11980.390625 C 7177.5 12398.203125 7123.320312 13127.695312 7137.304688 13886.289062 " transform="matrix(0.1, 0, 0, -0.1, 0, 2000)"/>
<path fill="none" stroke-width="360" stroke-linecap="round" stroke-linejoin="round" stroke="rgb(13.729858%, 12.159729%, 12.548828%)" stroke-opacity="1" stroke-miterlimit="2.61313" d="M 13006.015625 13909.804688 C 13395.117188 13125.507812 13907.304688 12440 14542.695312 11853.398438 " transform="matrix(0.1, 0, 0, -0.1, 0, 2000)"/>
</svg>
